<svg width="16" height="16" viewBox="0 0 16 16" fill="none" xmlns="http://www.w3.org/2000/svg">
<path d="M14.1891 5.51715L10.2219 4.94058L8.44845 1.34527C8.40001 1.24683 8.32033 1.16714 8.22189 1.11871C7.97501 0.996832 7.67501 1.09839 7.55158 1.34527L5.77814 4.94058L1.81095 5.51715C1.70158 5.53277 1.60158 5.58433 1.52501 5.66246C1.43245 5.75759 1.38145 5.88558 1.38321 6.0183C1.38497 6.15103 1.43934 6.27762 1.53439 6.37027L4.4047 9.16871L3.72658 13.1203C3.71067 13.2122 3.72085 13.3067 3.75594 13.3932C3.79103 13.4796 3.84964 13.5545 3.92512 13.6093C4.0006 13.6641 4.08993 13.6967 4.18298 13.7033C4.27603 13.71 4.36908 13.6904 4.45158 13.6468L8.00001 11.7812L11.5485 13.6468C11.6453 13.6984 11.7578 13.7156 11.8656 13.6968C12.1375 13.65 12.3203 13.3921 12.2735 13.1203L11.5953 9.16871L14.4656 6.37027C14.5438 6.29371 14.5953 6.19371 14.611 6.08433C14.6531 5.81089 14.4625 5.55777 14.1891 5.51715ZM10.3875 8.77496L10.9516 12.0609L8.00001 10.5109L5.04845 12.0625L5.61251 8.77652L3.22501 6.4484L6.52501 5.96871L8.00001 2.97964L9.47501 5.96871L12.775 6.4484L10.3875 8.77496Z" fill="black"/>
</svg>
